<?xml version="1.0" encoding="UTF-8" standalone="no"?>
<!-- Generator: Adobe Illustrator 18.0.0, SVG Export Plug-In . SVG Version: 6.00 Build 0)  -->

<svg
   xmlns:dc="http://purl.org/dc/elements/1.1/"
   xmlns:cc="http://creativecommons.org/ns#"
   xmlns:rdf="http://www.w3.org/1999/02/22-rdf-syntax-ns#"
   xmlns:svg="http://www.w3.org/2000/svg"
   xmlns="http://www.w3.org/2000/svg"
   xmlns:sodipodi="http://sodipodi.sourceforge.net/DTD/sodipodi-0.dtd"
   xmlns:inkscape="http://www.inkscape.org/namespaces/inkscape"
   version="1.1"
   id="_x31_0"
   x="0px"
   y="0px"
   viewBox="0 0 512.00005 512"
   xml:space="preserve"
   inkscape:version="0.91 r13725"
   sodipodi:docname="add_cur_spec1.svg"
   width="144.49779mm"
   height="144.49777mm"><metadata
     id="metadata13"><rdf:RDF><cc:Work
         rdf:about=""><dc:format>image/svg+xml</dc:format><dc:type
           rdf:resource="http://purl.org/dc/dcmitype/StillImage" /><dc:title /></cc:Work></rdf:RDF></metadata><defs
     id="defs11" /><sodipodi:namedview
     pagecolor="#ffffff"
     bordercolor="#666666"
     borderopacity="1"
     objecttolerance="10"
     gridtolerance="10"
     guidetolerance="10"
     inkscape:pageopacity="0"
     inkscape:pageshadow="2"
     inkscape:window-width="1369"
     inkscape:window-height="1063"
     id="namedview9"
     showgrid="false"
     inkscape:zoom="0.65186406"
     inkscape:cx="98.303838"
     inkscape:cy="153.3346"
     inkscape:window-x="0"
     inkscape:window-y="0"
     inkscape:window-maximized="0"
     inkscape:current-layer="_x31_0"
     units="mm" /><style
     type="text/css"
     id="style3">
	.st0{fill:#374149;}
</style><g
     id="g4181"
     transform="matrix(0.7938772,0,0,0.79396353,54.334991,54.290672)"><path
       style="fill:none;fill-rule:evenodd;stroke:#ff0000;stroke-width:37.78716278;stroke-linecap:round;stroke-linejoin:miter;stroke-miterlimit:4;stroke-dasharray:none;stroke-opacity:1"
       d="m 15.209842,354.77194 c 0,0 86.012118,-18.8266 121.395838,-39.84232 83.72274,-49.72615 51.43395,-298.430117 93.38143,-299.924051 31.28759,-1.114246 39.23122,185.977401 78.7072,193.677911 35.89681,7.00232 24.57161,41.23621 48.02471,49.80287 42.82712,15.64335 140.07215,-7.7471 140.07215,-7.7471"
       id="path3336"
       inkscape:connector-curvature="0"
       sodipodi:nodetypes="csssac" /><g
       id="g4447"
       style="stroke:#ffffff;stroke-width:2.87060237"
       transform="matrix(2.0235696,0,0,1.8372671,67.436685,-1304.4699)" /></g><path
     inkscape:connector-curvature="0"
     id="rect4142"
     d="m 460.40867,311.32699 -79.75775,6e-5 4e-5,-79.84287 -69.55666,5e-5 -4e-5,79.84285 -79.75776,8e-5 -7e-5,69.63004 79.75776,-6e-5 -5e-5,79.84287 69.55665,-6e-5 7e-5,-79.84286 79.75776,-7e-5 5e-5,-69.63003 z"
     style="opacity:1;fill:#000000;fill-opacity:1;fill-rule:evenodd;stroke:#000000;stroke-width:0;stroke-linecap:butt;stroke-linejoin:round;stroke-miterlimit:4;stroke-dasharray:none;stroke-dashoffset:0;stroke-opacity:1" /></svg>