<?xml version="1.0" encoding="UTF-8" standalone="no"?>
<!-- Generator: Adobe Illustrator 18.0.0, SVG Export Plug-In . SVG Version: 6.00 Build 0)  -->

<svg
   xmlns:dc="http://purl.org/dc/elements/1.1/"
   xmlns:cc="http://creativecommons.org/ns#"
   xmlns:rdf="http://www.w3.org/1999/02/22-rdf-syntax-ns#"
   xmlns:svg="http://www.w3.org/2000/svg"
   xmlns="http://www.w3.org/2000/svg"
   xmlns:sodipodi="http://sodipodi.sourceforge.net/DTD/sodipodi-0.dtd"
   xmlns:inkscape="http://www.inkscape.org/namespaces/inkscape"
   version="1.1"
   id="_x31_0"
   x="0px"
   y="0px"
   viewBox="0 0 512 512"
   style="enable-background:new 0 0 512 512;"
   xml:space="preserve"
   inkscape:version="0.91 r13725"
   sodipodi:docname="close.svg"><metadata
     id="metadata13"><rdf:RDF><cc:Work
         rdf:about=""><dc:format>image/svg+xml</dc:format><dc:type
           rdf:resource="http://purl.org/dc/dcmitype/StillImage" /></cc:Work></rdf:RDF></metadata><defs
     id="defs11" /><sodipodi:namedview
     pagecolor="#ffffff"
     bordercolor="#666666"
     borderopacity="1"
     objecttolerance="10"
     gridtolerance="10"
     guidetolerance="10"
     inkscape:pageopacity="0"
     inkscape:pageshadow="2"
     inkscape:window-width="1527"
     inkscape:window-height="843"
     id="namedview9"
     showgrid="false"
     inkscape:zoom="0.4609375"
     inkscape:cx="-487.05085"
     inkscape:cy="82.440679"
     inkscape:window-x="548"
     inkscape:window-y="95"
     inkscape:window-maximized="0"
     inkscape:current-layer="g4156"
     showguides="false" /><style
     type="text/css"
     id="style3">
	.st0{fill:#374149;}
</style><g
     id="g5"
     style="fill:#808080" /><g
     id="g4156"><path
       style="opacity:1;fill:#ff0000;fill-opacity:1;fill-rule:evenodd;stroke:#000000;stroke-width:35;stroke-linecap:butt;stroke-linejoin:round;stroke-miterlimit:4;stroke-dasharray:none;stroke-dashoffset:0;stroke-opacity:1"
       d="M 621.68741,640.71946 472.89556,789.51153 324.10371,640.71946 282.68587,682.13735 431.47773,830.92943 282.68587,979.72151 324.1037,1021.1394 472.89556,872.34734 621.68741,1021.1394 663.10525,979.72151 514.3134,830.92943 663.10524,682.13735 621.68741,640.71946 Z"
       id="rect4139"
       inkscape:connector-curvature="0" /><path
       style="opacity:1;fill:#ffffff;fill-opacity:1;fill-rule:evenodd;stroke:#000000;stroke-width:50;stroke-linecap:butt;stroke-linejoin:round;stroke-miterlimit:4;stroke-dasharray:none;stroke-dashoffset:0;stroke-opacity:1"
       d="m 43.954478,616.43251 -96.035447,96.03558 -96.035461,-96.03558 -83.7524,83.75254 96.03544,96.03558 -96.03544,96.0356 83.7514,83.75155 96.035461,-96.0356 96.035457,96.03561 83.752402,-83.75255 -96.035448,-96.03561 96.035448,-96.03559 -83.751412,-83.75153 z"
       id="rect4142"
       inkscape:connector-curvature="0" /><path
       style="opacity:1;fill:#ffffff;fill-opacity:1;fill-rule:evenodd;stroke:#000000;stroke-width:50;stroke-linecap:butt;stroke-linejoin:round;stroke-miterlimit:4;stroke-dasharray:none;stroke-dashoffset:0;stroke-opacity:1"
       d="M 1010.231,648.97245 906.7615,752.4421 803.292,648.97245 726.97349,725.29107 830.44301,828.76072 726.9735,932.23038 803.29069,1008.5476 906.76018,905.07803 1010.2297,1008.5477 1086.5482,932.22911 983.07868,828.7594 1086.5481,725.28974 1010.231,648.97245 Z"
       id="rect4138"
       inkscape:connector-curvature="0" /><path
       style="opacity:1;fill:#ff0000;fill-opacity:1;fill-rule:evenodd;stroke:#000000;stroke-width:35;stroke-linecap:butt;stroke-linejoin:round;stroke-miterlimit:4;stroke-dasharray:none;stroke-dashoffset:0;stroke-opacity:1"
       d="M 371.49295,76.198692 256,191.69183 140.50704,76.198692 76.198973,140.50687 191.69192,256.00001 76.198972,371.49313 140.50704,435.80131 256,320.30818 371.49295,435.80131 435.80102,371.49313 320.30807,256.00001 435.80102,140.50687 371.49295,76.198692 Z"
       id="rect4158"
       inkscape:connector-curvature="0" /></g></svg>