<?xml version="1.0" encoding="UTF-8" standalone="no"?>
<!-- Generator: Adobe Illustrator 18.0.0, SVG Export Plug-In . SVG Version: 6.00 Build 0)  -->

<svg
   xmlns:dc="http://purl.org/dc/elements/1.1/"
   xmlns:cc="http://creativecommons.org/ns#"
   xmlns:rdf="http://www.w3.org/1999/02/22-rdf-syntax-ns#"
   xmlns:svg="http://www.w3.org/2000/svg"
   xmlns="http://www.w3.org/2000/svg"
   xmlns:sodipodi="http://sodipodi.sourceforge.net/DTD/sodipodi-0.dtd"
   xmlns:inkscape="http://www.inkscape.org/namespaces/inkscape"
   version="1.1"
   id="_x31_0"
   x="0px"
   y="0px"
   viewBox="0 0 512 512"
   style="enable-background:new 0 0 512 512;"
   xml:space="preserve"
   inkscape:version="0.91 r13725"
   sodipodi:docname="Config1.svg"><metadata
     id="metadata13"><rdf:RDF><cc:Work
         rdf:about=""><dc:format>image/svg+xml</dc:format><dc:type
           rdf:resource="http://purl.org/dc/dcmitype/StillImage" /></cc:Work></rdf:RDF></metadata><defs
     id="defs11" /><sodipodi:namedview
     pagecolor="#ffffff"
     bordercolor="#666666"
     borderopacity="1"
     objecttolerance="10"
     gridtolerance="10"
     guidetolerance="10"
     inkscape:pageopacity="0"
     inkscape:pageshadow="2"
     inkscape:window-width="911"
     inkscape:window-height="480"
     id="namedview9"
     showgrid="false"
     inkscape:zoom="0.4609375"
     inkscape:cx="6.5084746"
     inkscape:cy="256"
     inkscape:window-x="0"
     inkscape:window-y="0"
     inkscape:window-maximized="0"
     inkscape:current-layer="_x31_0" /><style
     type="text/css"
     id="style3">
	.st0{fill:#374149;}
</style><g
     id="g5"
     style="fill:#808080"><path
       class="st0"
       d="M489.4,328.121l-35.714-23.633c-6.18-4.09-9.383-11.39-8.23-18.71c1.527-9.703,2.34-19.645,2.34-29.778   c0-10.133-0.813-20.074-2.34-29.778c-1.153-7.316,2.054-14.621,8.23-18.706l35.714-23.637c8.363-5.531,10.973-16.614,5.962-25.297   l-35.317-61.165c-5.012-8.683-15.914-11.965-24.886-7.488l-38.325,19.114c-6.629,3.308-14.562,2.43-20.324-2.23   c-15.41-12.465-32.789-22.59-51.598-29.836c-6.902-2.66-11.614-9.094-12.062-16.473l-2.606-42.695   C309.63,7.801,301.338,0,291.315,0h-70.629c-10.023,0-18.317,7.801-18.93,17.809l-2.606,42.695   c-0.45,7.379-5.16,13.813-12.062,16.473c-18.809,7.246-36.188,17.371-51.598,29.836c-5.762,4.66-13.695,5.538-20.325,2.23   L76.842,89.93c-8.973-4.477-19.875-1.195-24.886,7.488l-35.317,61.165c-5.011,8.683-2.402,19.766,5.961,25.297l35.715,23.637   c6.18,4.086,9.382,11.39,8.23,18.706c-1.527,9.703-2.34,19.645-2.34,29.778c0,10.133,0.813,20.074,2.34,29.778   c1.152,7.32-2.05,14.621-8.23,18.71l-35.715,23.633c-8.363,5.535-10.972,16.614-5.961,25.297l35.317,61.168   c5.011,8.68,15.914,11.962,24.886,7.489l38.324-19.114c6.63-3.309,14.563-2.43,20.325,2.23   c15.41,12.465,32.789,22.594,51.598,29.836c6.902,2.66,11.613,9.094,12.062,16.473l2.606,42.691   c0.613,10.004,8.906,17.809,18.93,17.809h70.629c10.023,0,18.316-7.805,18.93-17.809l2.606-42.691   c0.449-7.379,5.16-13.813,12.062-16.473c18.809-7.242,36.187-17.371,51.598-29.836c5.762-4.66,13.695-5.539,20.324-2.23   l38.325,19.114c8.972,4.473,19.874,1.191,24.886-7.489l35.317-61.168C500.373,344.734,497.763,333.656,489.4,328.121z M320.424,256   c0,35.582-28.844,64.426-64.422,64.426c-35.582,0-64.426-28.843-64.426-64.426c0-35.578,28.844-64.426,64.426-64.426   C291.58,191.574,320.424,220.422,320.424,256z"
       id="path7"
       style="fill:#808080" /></g></svg>