<?xml version="1.0" encoding="UTF-8" standalone="no"?>
<!-- Generator: Adobe Illustrator 18.0.0, SVG Export Plug-In . SVG Version: 6.00 Build 0)  -->

<svg
   xmlns:dc="http://purl.org/dc/elements/1.1/"
   xmlns:cc="http://creativecommons.org/ns#"
   xmlns:rdf="http://www.w3.org/1999/02/22-rdf-syntax-ns#"
   xmlns:svg="http://www.w3.org/2000/svg"
   xmlns="http://www.w3.org/2000/svg"
   xmlns:sodipodi="http://sodipodi.sourceforge.net/DTD/sodipodi-0.dtd"
   xmlns:inkscape="http://www.inkscape.org/namespaces/inkscape"
   version="1.1"
   id="_x31_0"
   x="0px"
   y="0px"
   viewBox="0 0 512 512"
   style="enable-background:new 0 0 512 512;"
   xml:space="preserve"
   inkscape:version="0.91 r13725"
   sodipodi:docname="Config3.svg"><metadata
     id="metadata13"><rdf:RDF><cc:Work
         rdf:about=""><dc:format>image/svg+xml</dc:format><dc:type
           rdf:resource="http://purl.org/dc/dcmitype/StillImage" /></cc:Work></rdf:RDF></metadata><defs
     id="defs11" /><sodipodi:namedview
     pagecolor="#ffffff"
     bordercolor="#666666"
     borderopacity="1"
     objecttolerance="10"
     gridtolerance="10"
     guidetolerance="10"
     inkscape:pageopacity="0"
     inkscape:pageshadow="2"
     inkscape:window-width="911"
     inkscape:window-height="480"
     id="namedview9"
     showgrid="false"
     inkscape:zoom="0.4609375"
     inkscape:cx="512"
     inkscape:cy="256"
     inkscape:window-x="948"
     inkscape:window-y="169"
     inkscape:window-maximized="0"
     inkscape:current-layer="_x31_0" /><style
     type="text/css"
     id="style3">
	.st0{fill:#374149;}
</style><g
     id="g5"
     transform="matrix(0.8660254,-0.5,0.5,0.8660254,-93.702667,162.29789)"><path
       class="st0"
       d="m 489.4,328.121 -35.714,-23.633 c -6.18,-4.09 -9.383,-11.39 -8.23,-18.71 1.527,-9.703 2.34,-19.645 2.34,-29.778 0,-10.133 -0.813,-20.074 -2.34,-29.778 -1.153,-7.316 2.054,-14.621 8.23,-18.706 L 489.4,183.879 c 8.363,-5.531 10.973,-16.614 5.962,-25.297 L 460.045,97.417 c -5.012,-8.683 -15.914,-11.965 -24.886,-7.488 l -38.325,19.114 c -6.629,3.308 -14.562,2.43 -20.324,-2.23 C 361.1,94.348 343.721,84.223 324.912,76.977 318.01,74.317 313.298,67.883 312.85,60.504 L 310.244,17.809 C 309.63,7.801 301.338,0 291.315,0 l -70.629,0 c -10.023,0 -18.317,7.801 -18.93,17.809 l -2.606,42.695 c -0.45,7.379 -5.16,13.813 -12.062,16.473 -18.809,7.246 -36.188,17.371 -51.598,29.836 -5.762,4.66 -13.695,5.538 -20.325,2.23 L 76.842,89.93 C 67.869,85.453 56.967,88.735 51.956,97.418 l -35.317,61.165 c -5.011,8.683 -2.402,19.766 5.961,25.297 l 35.715,23.637 c 6.18,4.086 9.382,11.39 8.23,18.706 -1.527,9.703 -2.34,19.645 -2.34,29.778 0,10.133 0.813,20.074 2.34,29.778 1.152,7.32 -2.05,14.621 -8.23,18.71 L 22.6,328.122 c -8.363,5.535 -10.972,16.614 -5.961,25.297 l 35.317,61.168 c 5.011,8.68 15.914,11.962 24.886,7.489 l 38.324,-19.114 c 6.63,-3.309 14.563,-2.43 20.325,2.23 15.41,12.465 32.789,22.594 51.598,29.836 6.902,2.66 11.613,9.094 12.062,16.473 l 2.606,42.691 c 0.613,10.004 8.906,17.809 18.93,17.809 l 70.629,0 c 10.023,0 18.316,-7.805 18.93,-17.809 l 2.606,-42.691 c 0.449,-7.379 5.16,-13.813 12.062,-16.473 18.809,-7.242 36.187,-17.371 51.598,-29.836 5.762,-4.66 13.695,-5.539 20.324,-2.23 l 38.325,19.114 c 8.972,4.473 19.874,1.191 24.886,-7.489 l 35.317,-61.168 c 5.009,-8.685 2.399,-19.763 -5.964,-25.298 z M 320.424,256 c 0,35.582 -28.844,64.426 -64.422,64.426 -35.582,0 -64.426,-28.843 -64.426,-64.426 0,-35.578 28.844,-64.426 64.426,-64.426 35.578,0 64.422,28.848 64.422,64.426 z"
       id="path7"
       inkscape:connector-curvature="0"
       style="fill:#374149" /></g></svg>