<?xml version="1.0" encoding="UTF-8" standalone="no"?>
<!-- Generator: Adobe Illustrator 18.0.0, SVG Export Plug-In . SVG Version: 6.00 Build 0)  -->

<svg
   xmlns:dc="http://purl.org/dc/elements/1.1/"
   xmlns:cc="http://creativecommons.org/ns#"
   xmlns:rdf="http://www.w3.org/1999/02/22-rdf-syntax-ns#"
   xmlns:svg="http://www.w3.org/2000/svg"
   xmlns="http://www.w3.org/2000/svg"
   xmlns:sodipodi="http://sodipodi.sourceforge.net/DTD/sodipodi-0.dtd"
   xmlns:inkscape="http://www.inkscape.org/namespaces/inkscape"
   version="1.1"
   id="_x31_0"
   x="0px"
   y="0px"
   viewBox="0 0 512 512"
   style="enable-background:new 0 0 512 512;"
   xml:space="preserve"
   inkscape:version="0.91 r13725"
   sodipodi:docname="HideShow_R_Ax3.svg"><metadata
     id="metadata13"><rdf:RDF><cc:Work
         rdf:about=""><dc:format>image/svg+xml</dc:format><dc:type
           rdf:resource="http://purl.org/dc/dcmitype/StillImage" /></cc:Work></rdf:RDF></metadata><defs
     id="defs11"><inkscape:path-effect
       is_visible="true"
       id="path-effect3344-9-7-1"
       effect="spiro" /></defs><sodipodi:namedview
     pagecolor="#ffffff"
     bordercolor="#666666"
     borderopacity="1"
     objecttolerance="10"
     gridtolerance="10"
     guidetolerance="10"
     inkscape:pageopacity="0"
     inkscape:pageshadow="2"
     inkscape:window-width="1173"
     inkscape:window-height="812"
     id="namedview9"
     showgrid="false"
     inkscape:zoom="0.65186406"
     inkscape:cx="318.88"
     inkscape:cy="256.2942"
     inkscape:window-x="705"
     inkscape:window-y="411"
     inkscape:window-maximized="0"
     inkscape:current-layer="g4156" /><style
     type="text/css"
     id="style3">
	.st0{fill:#374149;}
</style><g
     id="g5"
     style="fill:#808080" /><g
     id="g4156"><path
       style="opacity:1;fill:#cccccc;fill-opacity:1;fill-rule:evenodd;stroke:none;stroke-width:20;stroke-linecap:round;stroke-linejoin:round;stroke-miterlimit:4;stroke-dasharray:none;stroke-dashoffset:0;stroke-opacity:1"
       d="m -3.15e-5,-2.2e-5 512.0000615,0 0,512.000042 -512.0000615,0 z"
       id="rect4136-6"
       inkscape:connector-curvature="0" /><g
       id="g4166"
       transform="matrix(3.9483057,0,0,3.9483057,-604.62382,-2589.9757)"><path
         style="fill:#000000;fill-rule:evenodd;stroke:#000000;stroke-width:7.50710869;stroke-linecap:butt;stroke-linejoin:miter;stroke-miterlimit:4;stroke-dasharray:none;stroke-opacity:1"
         d="m 172.3063,668.93902 0,103.74066"
         id="path3342-3-4-7"
         inkscape:path-effect="#path-effect3344-9-7-1"
         inkscape:original-d="m 172.3063,668.93902 0,103.74066"
         inkscape:connector-curvature="0" /><g
         style="font-style:normal;font-variant:normal;font-weight:normal;font-stretch:normal;font-size:40px;line-height:89.99999762%;font-family:sans-serif;-inkscape-font-specification:'sans-serif, Normal';text-align:start;letter-spacing:0px;word-spacing:0px;writing-mode:lr-tb;text-anchor:start;fill:#000000;fill-opacity:1;stroke:#000000;stroke-width:2.47237039;stroke-linecap:butt;stroke-linejoin:miter;stroke-miterlimit:4;stroke-dasharray:none;stroke-opacity:1"
         id="text4399"
         transform="translate(0,-2.1805225e-5)"><path
           d="m 170.41027,686.06951 0,3.25203 11.74796,0 0,-3.25203 -11.74796,0 z"
           style="font-style:normal;font-variant:normal;font-weight:normal;font-stretch:normal;font-size:40px;line-height:89.99999762%;font-family:'.Helvetica Neue DeskInterface';-inkscape-font-specification:'.Helvetica Neue DeskInterface, Normal';text-align:start;writing-mode:lr-tb;text-anchor:start;fill:#000000;stroke:#000000;stroke-width:2.47237039;stroke-miterlimit:4;stroke-dasharray:none"
           id="path4149"
           inkscape:connector-curvature="0" /><path
           d="m 193.02079,682.53292 0,2.92683 q 0.9756,-0.12195 2.07317,-0.12195 1.30081,0 2.39837,0.36585 1.13821,0.32521 1.95122,1.05692 0.81301,0.69105 1.30081,1.74796 0.48781,1.01626 0.48781,2.35773 0,1.30081 -0.52846,2.35772 -0.4878,1.01626 -1.34146,1.74797 -0.85366,0.69105 -1.99187,1.09756 -1.13821,0.36585 -2.39838,0.36585 -2.96747,0 -4.51219,-1.74797 -1.54472,-1.78861 -1.62602,-4.59349 l -3.45528,0 q -0.0406,2.23577 0.60975,3.98374 0.69106,1.74797 1.95122,2.96748 1.26017,1.17886 3.04878,1.78862 1.78862,0.60975 3.98374,0.60975 2.03253,0 3.82114,-0.52845 1.82927,-0.56911 3.17073,-1.66667 1.34147,-1.09756 2.11383,-2.72358 0.813,-1.66666 0.813,-3.82114 0,-2.60162 -1.30081,-4.51219 -1.26016,-1.91057 -3.90244,-2.47967 l 0,-0.0813 q 1.70732,-0.77235 2.84553,-2.27642 1.13821,-1.50406 1.13821,-3.45528 0,-1.99187 -0.69106,-3.45529 -0.6504,-1.46341 -1.82926,-2.39837 -1.17887,-0.93496 -2.80488,-1.38212 -1.58537,-0.4878 -3.45529,-0.4878 -2.15447,0 -3.82113,0.69106 -1.62602,0.69105 -2.72358,1.91057 -1.09756,1.21951 -1.70732,2.92682 -0.5691,1.70732 -0.65041,3.78049 l 3.45529,0 q 0,-1.26016 0.3252,-2.39837 0.32521,-1.13821 0.97561,-1.99187 0.69106,-0.85366 1.70732,-1.34146 1.05691,-0.52846 2.43902,-0.52846 2.19513,0 3.65854,1.17886 1.46342,1.13821 1.46342,3.45529 0,1.13821 -0.44716,2.03252 -0.44715,0.89431 -1.21951,1.50406 -0.73171,0.56911 -1.74797,0.89431 -0.97561,0.28455 -2.07317,0.28455 l -0.73171,0 q -0.20325,0 -0.4065,0 -0.1626,0 -0.36585,-0.0407 z"
           style="font-style:normal;font-variant:normal;font-weight:normal;font-stretch:normal;font-size:40px;line-height:89.99999762%;font-family:'.Helvetica Neue DeskInterface';-inkscape-font-specification:'.Helvetica Neue DeskInterface, Normal';text-align:start;writing-mode:lr-tb;text-anchor:start;fill:#000000;stroke:#000000;stroke-width:2.47237039;stroke-miterlimit:4;stroke-dasharray:none"
           id="path4151"
           inkscape:connector-curvature="0" /><path
           d="m 212.10298,684.80935 q 0,-1.05691 0,-2.31708 0.0406,-1.30081 0.20325,-2.56097 0.20325,-1.30082 0.52845,-2.52033 0.36586,-1.21951 1.01626,-2.11382 0.69106,-0.93496 1.70732,-1.50406 1.01626,-0.56911 2.47967,-0.56911 1.46342,0 2.47968,0.56911 1.01626,0.5691 1.66667,1.50406 0.69105,0.89431 1.01626,2.11382 0.36585,1.21951 0.52845,2.52033 0.20325,1.26016 0.20325,2.56097 0.0406,1.26017 0.0406,2.31708 0,1.62601 -0.12195,3.65853 -0.0813,1.99187 -0.6504,3.78049 -0.52846,1.74797 -1.74797,2.96748 -1.21951,1.21951 -3.41464,1.21951 -2.19512,0 -3.41463,-1.21951 -1.21951,-1.21951 -1.78862,-2.96748 -0.52845,-1.78862 -0.6504,-3.78049 -0.0813,-2.03252 -0.0813,-3.65853 z m -3.65854,0.0407 q 0,1.58536 0.0813,3.29268 0.0813,1.70732 0.4065,3.33333 0.32521,1.62602 0.93496,3.08943 0.60976,1.42277 1.66667,2.52033 1.05691,1.09756 2.64228,1.74797 1.62601,0.60975 3.86178,0.60975 2.27643,0 3.86179,-0.60975 1.58537,-0.65041 2.64228,-1.74797 1.05691,-1.09756 1.66667,-2.52033 0.60975,-1.46341 0.93496,-3.08943 0.3252,-1.62601 0.4065,-3.33333 0.0813,-1.70732 0.0813,-3.29268 0,-1.58537 -0.0813,-3.29269 -0.0813,-1.70731 -0.4065,-3.33333 -0.32521,-1.62602 -0.93496,-3.08943 -0.60976,-1.46342 -1.66667,-2.56098 -1.05691,-1.09756 -2.68293,-1.74796 -1.58536,-0.65041 -3.82114,-0.65041 -2.23577,0 -3.86178,0.65041 -1.58537,0.6504 -2.64228,1.74796 -1.05691,1.09756 -1.66667,2.56098 -0.60975,1.46341 -0.93496,3.08943 -0.3252,1.62602 -0.4065,3.33333 -0.0813,1.70732 -0.0813,3.29269 z"
           style="font-style:normal;font-variant:normal;font-weight:normal;font-stretch:normal;font-size:40px;line-height:89.99999762%;font-family:'.Helvetica Neue DeskInterface';-inkscape-font-specification:'.Helvetica Neue DeskInterface, Normal';text-align:start;writing-mode:lr-tb;text-anchor:start;fill:#000000;stroke:#000000;stroke-width:2.47237039;stroke-miterlimit:4;stroke-dasharray:none"
           id="path4153"
           inkscape:connector-curvature="0" /><path
           d="m 170.41027,722.06951 0,3.25203 11.74796,0 0,-3.25203 -11.74796,0 z"
           style="font-style:normal;font-variant:normal;font-weight:normal;font-stretch:normal;font-size:40px;line-height:89.99999762%;font-family:'.Helvetica Neue DeskInterface';-inkscape-font-specification:'.Helvetica Neue DeskInterface, Normal';text-align:start;writing-mode:lr-tb;text-anchor:start;fill:#000000;stroke:#000000;stroke-width:2.47237039;stroke-miterlimit:4;stroke-dasharray:none"
           id="path4155"
           inkscape:connector-curvature="0" /><path
           d="m 185.94761,716.37845 3.45529,0 q -0.0406,-1.30081 0.2439,-2.56097 0.3252,-1.30082 1.01626,-2.31708 0.69106,-1.01626 1.74797,-1.62601 1.09756,-0.65041 2.60163,-0.65041 1.13821,0 2.15447,0.36585 1.01626,0.36586 1.74796,1.05691 0.77236,0.69106 1.21952,1.66667 0.44715,0.93496 0.44715,2.11382 0,1.50407 -0.4878,2.64228 -0.44716,1.13821 -1.38212,2.11382 -0.89431,0.97561 -2.27642,1.95122 -1.38211,0.93496 -3.21138,2.07317 -1.50407,0.89431 -2.88618,1.91057 -1.38212,1.01626 -2.47968,2.35772 -1.09756,1.34147 -1.82926,3.17073 -0.69106,1.78862 -0.89431,4.3496 l 18.82113,0 0,-3.04878 -14.79674,0 q 0.2439,-1.34147 1.01626,-2.35773 0.813,-1.05691 1.91057,-1.95122 1.13821,-0.89431 2.47967,-1.66666 1.34146,-0.81301 2.68293,-1.62602 1.34146,-0.85366 2.60162,-1.78862 1.26017,-0.93496 2.23578,-2.07317 0.97561,-1.17886 1.54471,-2.64227 0.60976,-1.46342 0.60976,-3.37399 0,-2.03252 -0.73171,-3.57723 -0.69106,-1.54472 -1.91057,-2.56098 -1.21951,-1.05691 -2.88618,-1.58537 -1.62601,-0.5691 -3.49593,-0.5691 -2.27643,0 -4.06504,0.77236 -1.78862,0.77235 -3.00813,2.15447 -1.17887,1.34146 -1.74797,3.21138 -0.56911,1.86992 -0.44716,4.06504 z"
           style="font-style:normal;font-variant:normal;font-weight:normal;font-stretch:normal;font-size:40px;line-height:89.99999762%;font-family:'.Helvetica Neue DeskInterface';-inkscape-font-specification:'.Helvetica Neue DeskInterface, Normal';text-align:start;writing-mode:lr-tb;text-anchor:start;fill:#000000;stroke:#000000;stroke-width:2.47237039;stroke-miterlimit:4;stroke-dasharray:none"
           id="path4157"
           inkscape:connector-curvature="0" /><path
           d="m 212.10298,720.80935 q 0,-1.05692 0,-2.31708 0.0406,-1.30081 0.20325,-2.56097 0.20325,-1.30082 0.52845,-2.52033 0.36586,-1.21951 1.01626,-2.11382 0.69106,-0.93496 1.70732,-1.50407 1.01626,-0.5691 2.47967,-0.5691 1.46342,0 2.47968,0.5691 1.01626,0.56911 1.66667,1.50407 0.69105,0.89431 1.01626,2.11382 0.36585,1.21951 0.52845,2.52033 0.20325,1.26016 0.20325,2.56097 0.0406,1.26016 0.0406,2.31708 0,1.62601 -0.12195,3.65853 -0.0813,1.99187 -0.6504,3.78049 -0.52846,1.74797 -1.74797,2.96748 -1.21951,1.21951 -3.41464,1.21951 -2.19512,0 -3.41463,-1.21951 -1.21951,-1.21951 -1.78862,-2.96748 -0.52845,-1.78862 -0.6504,-3.78049 -0.0813,-2.03252 -0.0813,-3.65853 z m -3.65854,0.0407 q 0,1.58536 0.0813,3.29268 0.0813,1.70732 0.4065,3.33333 0.32521,1.62602 0.93496,3.08943 0.60976,1.42277 1.66667,2.52033 1.05691,1.09756 2.64228,1.74797 1.62601,0.60975 3.86178,0.60975 2.27643,0 3.86179,-0.60975 1.58537,-0.65041 2.64228,-1.74797 1.05691,-1.09756 1.66667,-2.52033 0.60975,-1.46341 0.93496,-3.08943 0.3252,-1.62601 0.4065,-3.33333 0.0813,-1.70732 0.0813,-3.29268 0,-1.58537 -0.0813,-3.29269 -0.0813,-1.70731 -0.4065,-3.33333 -0.32521,-1.62602 -0.93496,-3.08943 -0.60976,-1.46342 -1.66667,-2.56098 -1.05691,-1.09756 -2.68293,-1.74796 -1.58536,-0.65041 -3.82114,-0.65041 -2.23577,0 -3.86178,0.65041 -1.58537,0.6504 -2.64228,1.74796 -1.05691,1.09756 -1.66667,2.56098 -0.60975,1.46341 -0.93496,3.08943 -0.3252,1.62602 -0.4065,3.33333 -0.0813,1.70732 -0.0813,3.29269 z"
           style="font-style:normal;font-variant:normal;font-weight:normal;font-stretch:normal;font-size:40px;line-height:89.99999762%;font-family:'.Helvetica Neue DeskInterface';-inkscape-font-specification:'.Helvetica Neue DeskInterface, Normal';text-align:start;writing-mode:lr-tb;text-anchor:start;fill:#000000;stroke:#000000;stroke-width:2.47237039;stroke-miterlimit:4;stroke-dasharray:none"
           id="path4159"
           inkscape:connector-curvature="0" /><path
           d="m 170.41027,758.06951 0,3.25203 11.74796,0 0,-3.25203 -11.74796,0 z"
           style="font-style:normal;font-variant:normal;font-weight:normal;font-stretch:normal;font-size:40px;line-height:89.99999762%;font-family:'.Helvetica Neue DeskInterface';-inkscape-font-specification:'.Helvetica Neue DeskInterface, Normal';text-align:start;writing-mode:lr-tb;text-anchor:start;fill:#000000;stroke:#000000;stroke-width:2.47237039;stroke-miterlimit:4;stroke-dasharray:none"
           id="path4161"
           inkscape:connector-curvature="0" /><path
           d="m 198.63054,770.99634 0,-28.82114 -2.64228,0 q -0.28455,1.62601 -1.05691,2.68292 -0.77235,1.05692 -1.91056,1.66667 -1.09757,0.60976 -2.47968,0.85366 -1.38211,0.20325 -2.84553,0.20325 l 0,2.76423 7.47968,0 0,20.65041 3.45528,0 z"
           style="font-style:normal;font-variant:normal;font-weight:normal;font-stretch:normal;font-size:40px;line-height:89.99999762%;font-family:'.Helvetica Neue DeskInterface';-inkscape-font-specification:'.Helvetica Neue DeskInterface, Normal';text-align:start;writing-mode:lr-tb;text-anchor:start;fill:#000000;stroke:#000000;stroke-width:2.47237039;stroke-miterlimit:4;stroke-dasharray:none"
           id="path4163"
           inkscape:connector-curvature="0" /><path
           d="m 212.10298,756.80934 q 0,-1.05691 0,-2.31707 0.0406,-1.30081 0.20325,-2.56097 0.20325,-1.30082 0.52845,-2.52033 0.36586,-1.21951 1.01626,-2.11382 0.69106,-0.93496 1.70732,-1.50407 1.01626,-0.5691 2.47967,-0.5691 1.46342,0 2.47968,0.5691 1.01626,0.56911 1.66667,1.50407 0.69105,0.89431 1.01626,2.11382 0.36585,1.21951 0.52845,2.52033 0.20325,1.26016 0.20325,2.56097 0.0406,1.26016 0.0406,2.31707 0,1.62602 -0.12195,3.65854 -0.0813,1.99187 -0.6504,3.78049 -0.52846,1.74797 -1.74797,2.96748 -1.21951,1.21951 -3.41464,1.21951 -2.19512,0 -3.41463,-1.21951 -1.21951,-1.21951 -1.78862,-2.96748 -0.52845,-1.78862 -0.6504,-3.78049 -0.0813,-2.03252 -0.0813,-3.65854 z m -3.65854,0.0407 q 0,1.58537 0.0813,3.29269 0.0813,1.70731 0.4065,3.33333 0.32521,1.62602 0.93496,3.08943 0.60976,1.42277 1.66667,2.52033 1.05691,1.09756 2.64228,1.74796 1.62601,0.60976 3.86178,0.60976 2.27643,0 3.86179,-0.60976 1.58537,-0.6504 2.64228,-1.74796 1.05691,-1.09756 1.66667,-2.52033 0.60975,-1.46341 0.93496,-3.08943 0.3252,-1.62602 0.4065,-3.33333 0.0813,-1.70732 0.0813,-3.29269 0,-1.58536 -0.0813,-3.29268 -0.0813,-1.70732 -0.4065,-3.33333 -0.32521,-1.62602 -0.93496,-3.08943 -0.60976,-1.46342 -1.66667,-2.56098 -1.05691,-1.09756 -2.68293,-1.74797 -1.58536,-0.6504 -3.82114,-0.6504 -2.23577,0 -3.86178,0.6504 -1.58537,0.65041 -2.64228,1.74797 -1.05691,1.09756 -1.66667,2.56098 -0.60975,1.46341 -0.93496,3.08943 -0.3252,1.62601 -0.4065,3.33333 -0.0813,1.70732 -0.0813,3.29268 z"
           style="font-style:normal;font-variant:normal;font-weight:normal;font-stretch:normal;font-size:40px;line-height:89.99999762%;font-family:'.Helvetica Neue DeskInterface';-inkscape-font-specification:'.Helvetica Neue DeskInterface, Normal';text-align:start;writing-mode:lr-tb;text-anchor:start;fill:#000000;stroke:#000000;stroke-width:2.47237039;stroke-miterlimit:4;stroke-dasharray:none"
           id="path4165"
           inkscape:connector-curvature="0" /></g><g
         id="g4429"
         transform="matrix(0.46049291,0,0,0.41809705,443.0599,277.60462)"
         style="stroke:#ffffff;stroke-width:2.27902961"><text
           transform="scale(0.66346789,1.507232)"
           sodipodi:linespacing="125%"
           id="text4407"
           y="712.17773"
           x="-681.74731"
           style="font-style:normal;font-weight:normal;font-size:107.47493744px;line-height:125%;font-family:sans-serif;letter-spacing:0px;word-spacing:0px;fill:#808080;fill-opacity:1;stroke:none;stroke-width:1px;stroke-linecap:butt;stroke-linejoin:miter;stroke-opacity:1;"
           xml:space="preserve"><tspan
             style="fill:#808080;"
             y="712.17773"
             x="-681.74731"
             id="tspan4409"
             sodipodi:role="line">⬅</tspan></text>
<text
           transform="scale(-0.66346787,-1.507232)"
           sodipodi:linespacing="125%"
           id="text4407-1"
           y="-693.45007"
           x="570.13568"
           style="font-style:normal;font-weight:normal;font-size:107.47494507px;line-height:125%;font-family:sans-serif;letter-spacing:0px;word-spacing:0px;fill:#808080;fill-opacity:1;stroke:none;stroke-width:1px;stroke-linecap:butt;stroke-linejoin:miter;stroke-opacity:1;"
           xml:space="preserve"><tspan
             style="fill:#808080;"
             y="-693.45007"
             x="570.13568"
             id="tspan4409-5"
             sodipodi:role="line">⬅</tspan></text>
</g></g></g></svg>