<?xml version="1.0" encoding="UTF-8" standalone="no"?>
<!-- Generator: Adobe Illustrator 18.0.0, SVG Export Plug-In . SVG Version: 6.00 Build 0)  -->

<svg
   xmlns:dc="http://purl.org/dc/elements/1.1/"
   xmlns:cc="http://creativecommons.org/ns#"
   xmlns:rdf="http://www.w3.org/1999/02/22-rdf-syntax-ns#"
   xmlns:svg="http://www.w3.org/2000/svg"
   xmlns="http://www.w3.org/2000/svg"
   xmlns:sodipodi="http://sodipodi.sourceforge.net/DTD/sodipodi-0.dtd"
   xmlns:inkscape="http://www.inkscape.org/namespaces/inkscape"
   version="1.1"
   id="_x31_0"
   x="0px"
   y="0px"
   viewBox="0 0 512.00005 512"
   xml:space="preserve"
   inkscape:version="0.91 r13725"
   sodipodi:docname="hide1.svg"
   width="512.00006"
   height="511.99997"><metadata
     id="metadata13"><rdf:RDF><cc:Work
         rdf:about=""><dc:format>image/svg+xml</dc:format><dc:type
           rdf:resource="http://purl.org/dc/dcmitype/StillImage" /><dc:title /></cc:Work></rdf:RDF></metadata><defs
     id="defs11"><inkscape:path-effect
       is_visible="true"
       id="path-effect3344"
       effect="spiro" /><inkscape:path-effect
       is_visible="true"
       id="path-effect4156"
       effect="spiro" /></defs><sodipodi:namedview
     pagecolor="#ffffff"
     bordercolor="#666666"
     borderopacity="1"
     objecttolerance="10"
     gridtolerance="10"
     guidetolerance="10"
     inkscape:pageopacity="0"
     inkscape:pageshadow="2"
     inkscape:window-width="2010"
     inkscape:window-height="1227"
     id="namedview9"
     showgrid="false"
     inkscape:zoom="0.92187505"
     inkscape:cx="85.600606"
     inkscape:cy="150.11525"
     inkscape:window-x="434"
     inkscape:window-y="96"
     inkscape:window-maximized="0"
     inkscape:current-layer="_x31_0"
     units="px" /><style
     type="text/css"
     id="style3">
	.st0{fill:#374149;}
</style><g
     id="g4163"
     transform="matrix(0.7594842,0,0,0.75912999,54.670056,36.436721)"><path
       sodipodi:nodetypes="csssac"
       inkscape:connector-curvature="0"
       id="path3336"
       d="m 14.424011,389.22234 c 0,0 89.169979,-19.40155 125.852789,-41.05907 86.79655,-51.24476 53.32231,-307.543986 96.80985,-309.083545 32.4363,-1.148273 40.67155,191.657035 81.59687,199.592715 37.21474,7.21617 25.47374,42.49554 49.78791,51.32382 44.39946,16.12109 145.21477,-7.9837 145.21477,-7.9837"
       style="fill:none;fill-rule:evenodd;stroke:#000000;stroke-width:39.50971301;stroke-linecap:round;stroke-linejoin:round;stroke-miterlimit:4;stroke-dasharray:79.019426,79.019426;stroke-opacity:1;stroke-dashoffset:43.46068431" /></g><g
     style="font-style:normal;font-weight:normal;font-size:7.5px;line-height:125%;font-family:sans-serif;letter-spacing:0px;word-spacing:0px;fill:#ff0000;fill-opacity:1;stroke:#ff0000;stroke-width:1px;stroke-linecap:butt;stroke-linejoin:miter;stroke-opacity:1"
     id="text4138"><path
       d="m 264.02309,368.28839 13.48877,37.8418 14.52637,-39.48975 q 1.70898,-4.76074 3.35693,-6.71387 1.64795,-2.01416 5.00488,-2.01416 3.17383,0 5.3711,2.13623 2.2583,2.13623 2.2583,4.94385 0,1.09863 -0.42725,2.56348 -0.36621,1.46484 -0.91552,2.74658 -0.48828,1.28174 -1.15967,2.92969 l -15.99121,39.67285 q -0.67139,1.70898 -1.77002,4.3335 -1.0376,2.62451 -2.38037,4.5166 -1.28174,1.83105 -3.23487,2.86865 -1.89209,1.0376 -4.63867,1.0376 -3.54004,0 -5.67627,-1.58692 -2.0752,-1.64795 -3.11279,-3.54004 -0.97657,-1.95312 -3.35694,-7.62939 l -15.86914,-39.24561 q -0.54931,-1.46484 -1.15967,-2.92969 -0.54931,-1.46484 -0.97656,-2.99072 -0.36621,-1.52588 -0.36621,-2.62451 0,-1.70899 1.0376,-3.35693 1.0376,-1.70899 2.86865,-2.74659 1.83105,-1.09863 3.96729,-1.09863 4.15039,0 5.67627,2.38037 1.58691,2.38037 3.479,7.99561 z"
       style="font-style:normal;font-variant:normal;font-weight:normal;font-stretch:normal;font-size:125.00000763px;line-height:125%;font-family:'Arial Rounded MT Bold';-inkscape-font-specification:'Arial Rounded MT Bold, Normal';text-align:end;writing-mode:lr-tb;text-anchor:end;fill:#ff0000;stroke:#ff0000"
       id="path4141" /><path
       d="m 335.49527,342.65362 0,25.45166 q 4.6997,-4.88281 9.58252,-7.44629 4.88281,-2.62451 12.08496,-2.62451 8.30078,0 14.52637,3.96729 6.28662,3.90625 9.70459,11.41357 3.479,7.44629 3.479,17.7002 0,7.56836 -1.95313,13.91601 -1.89209,6.28663 -5.55419,10.9253 -3.66211,4.63867 -8.91114,7.20215 -5.18799,2.50244 -11.47461,2.50244 -3.84521,0 -7.26318,-0.91553 -3.35694,-0.91553 -5.73731,-2.38037 -2.38037,-1.52588 -4.08935,-3.11279 -1.64795,-1.58692 -4.39453,-4.76075 l 0,1.64795 q 0,4.69971 -2.25831,7.14112 -2.2583,2.38037 -5.7373,2.38037 -3.54004,0 -5.67627,-2.38037 -2.0752,-2.44141 -2.0752,-7.14112 l 0,-72.75391 q 0,-5.06592 2.01416,-7.62939 2.0752,-2.62451 5.73731,-2.62451 3.84521,0 5.92041,2.50244 2.0752,2.4414 2.0752,7.01904 z m 0.79345,49.49952 q 0,9.94873 4.5166,15.31982 4.57764,5.31006 11.9629,5.31006 6.28662,0 10.80322,-5.43213 4.57764,-5.49316 4.57764,-15.68604 0,-6.59179 -1.89209,-11.35254 -1.89209,-4.76074 -5.3711,-7.32421 -3.479,-2.62452 -8.11767,-2.62452 -4.76075,0 -8.48389,2.62452 -3.72315,2.56347 -5.85938,7.50732 -2.13623,4.88281 -2.13623,11.65772 z"
       style="font-style:normal;font-variant:normal;font-weight:normal;font-stretch:normal;font-size:125.00000763px;line-height:125%;font-family:'Arial Rounded MT Bold';-inkscape-font-specification:'Arial Rounded MT Bold, Normal';text-align:end;writing-mode:lr-tb;text-anchor:end;fill:#ff0000;stroke:#ff0000"
       id="path4143" /><path
       d="m 417.77066,409.73126 31.86036,0 q 4.76074,0 7.26318,1.95313 2.50244,1.95312 2.50244,5.31006 0,2.99072 -2.01416,5.06591 -1.95312,2.0752 -5.98144,2.0752 l -44.92188,0 q -4.57764,0 -7.14111,-2.50244 -2.56348,-2.56348 -2.56348,-5.98145 0,-2.19726 1.64795,-5.79834 1.64795,-3.66211 3.60107,-5.7373 8.11768,-8.42286 14.64844,-14.4043 6.53076,-6.04248 9.33838,-7.93457 5.00488,-3.54004 8.30078,-7.08008 3.35694,-3.60107 5.06592,-7.32422 1.77002,-3.78418 1.77002,-7.38525 0,-3.90625 -1.89209,-6.95801 -1.83105,-3.1128 -5.06592,-4.82178 -3.17383,-1.70898 -6.95801,-1.70898 -7.9956,0 -12.57324,7.01904 -0.61035,0.91553 -2.07519,5.00488 -1.40381,4.08936 -3.23487,6.28662 -1.77002,2.19727 -5.24902,2.19727 -3.05176,0 -5.06592,-2.01416 -2.01416,-2.01416 -2.01416,-5.49317 0,-4.21142 1.89209,-8.78906 1.89209,-4.57764 5.61523,-8.30078 3.78418,-3.72314 9.52149,-5.98145 5.79834,-2.31933 13.5498,-2.31933 9.33838,0 15.93018,2.92969 4.27246,1.95312 7.50733,5.37109 3.23486,3.41797 5.00488,7.93457 1.83105,4.45557 1.83105,9.27734 0,7.56836 -3.78418,13.79395 -3.72314,6.16455 -7.62939,9.70459 -3.90625,3.47901 -13.12256,10.98633 -9.15527,7.50733 -12.57324,11.65772 -1.46485,1.64795 -2.99073,3.96728 z"
       style="font-style:normal;font-variant:normal;font-weight:normal;font-stretch:normal;font-size:125.00000763px;line-height:125%;font-family:'Arial Rounded MT Bold';-inkscape-font-specification:'Arial Rounded MT Bold, Normal';text-align:end;writing-mode:lr-tb;text-anchor:end;fill:#ff0000;stroke:#ff0000"
       id="path4145" /></g></svg>