<?xml version="1.0" encoding="UTF-8" standalone="no"?>
<!-- Generator: Adobe Illustrator 18.0.0, SVG Export Plug-In . SVG Version: 6.00 Build 0)  -->

<svg
   xmlns:dc="http://purl.org/dc/elements/1.1/"
   xmlns:cc="http://creativecommons.org/ns#"
   xmlns:rdf="http://www.w3.org/1999/02/22-rdf-syntax-ns#"
   xmlns:svg="http://www.w3.org/2000/svg"
   xmlns="http://www.w3.org/2000/svg"
   xmlns:sodipodi="http://sodipodi.sourceforge.net/DTD/sodipodi-0.dtd"
   xmlns:inkscape="http://www.inkscape.org/namespaces/inkscape"
   version="1.1"
   id="_x31_0"
   x="0px"
   y="0px"
   viewBox="0 0 512.00005 512"
   xml:space="preserve"
   inkscape:version="0.91 r13725"
   sodipodi:docname="NF2.svg"
   width="144.49779mm"
   height="144.49777mm"><metadata
     id="metadata13"><rdf:RDF><cc:Work
         rdf:about=""><dc:format>image/svg+xml</dc:format><dc:type
           rdf:resource="http://purl.org/dc/dcmitype/StillImage" /><dc:title /></cc:Work></rdf:RDF></metadata><defs
     id="defs11" /><sodipodi:namedview
     pagecolor="#ffffff"
     bordercolor="#666666"
     borderopacity="1"
     objecttolerance="10"
     gridtolerance="10"
     guidetolerance="10"
     inkscape:pageopacity="0"
     inkscape:pageshadow="2"
     inkscape:window-width="1369"
     inkscape:window-height="1063"
     id="namedview9"
     showgrid="false"
     inkscape:zoom="0.65186409"
     inkscape:cx="374.68152"
     inkscape:cy="325.81669"
     inkscape:window-x="538"
     inkscape:window-y="126"
     inkscape:window-maximized="0"
     inkscape:current-layer="_x31_0"
     units="mm" /><style
     type="text/css"
     id="style3">
	.st0{fill:#374149;}
</style><path
     style="opacity:1;fill:#cccccc;fill-opacity:1;fill-rule:evenodd;stroke:none;stroke-width:20;stroke-linecap:round;stroke-linejoin:round;stroke-miterlimit:4;stroke-dasharray:none;stroke-dashoffset:0;stroke-opacity:1"
     d="m 0.01941263,0.01904541 511.96120737,0 0,511.96192459 -511.96120737,0 z"
     id="rect4136-6"
     inkscape:connector-curvature="0" /><g
     id="g4153"
     transform="matrix(0.79179002,0,0,0.79118519,53.29481,42.887424)"><g
       transform="matrix(0.81005075,0,0,0.81100297,49.962869,74.751631)"
       id="g4145"><g
         id="g4181"
         transform="matrix(0.7938772,0,0,0.79396353,54.334991,54.290672)"><path
           style="fill:none;fill-rule:evenodd;stroke:#000000;stroke-width:39.26826477;stroke-linecap:round;stroke-linejoin:round;stroke-miterlimit:4;stroke-dasharray:none;stroke-opacity:1"
           d="m -130.5941,423.62799 c 0,0 0.96412,110.20328 2.80496,109.21995 1.84083,-0.98333 4.55839,-113.15327 8.06525,-114.99181 3.50687,-1.83853 7.80305,-111.14928 12.80115,-113.71489 4.99809,-2.56561 10.698096,181.9214 17.01261,178.75685 6.314515,-3.16456 13.243538,-161.12762 20.699667,-164.76299 7.45613,-3.63537 15.439366,195.72815 23.862306,191.75009 8.42294,-3.97807 17.285583,-270.91994 26.500528,-275.11256 9.2149441,-4.19263 18.78218977,226.37805 28.6143338,222.099 9.8321442,-4.27906 19.9291862,-481.896737 30.2037252,-486.134097 10.274538,-4.23736 20.726572,574.415807 31.268699,570.348277 10.542128,-4.06754 21.174348,-296.395 31.809261,-300.16458 10.63491,-3.76958 21.27251,180.02596 31.8254,176.68246 10.55289,-3.3435 21.02107,-529.65735 31.31713,-532.44664 10.29606,-2.78929 20.42001,583.65211 30.28444,581.54515 9.86443,-2.10695 19.46934,-334.80488 28.72733,-336.10137 9.258,-1.29648 18.16907,222.66205 26.64582,222.30415 8.25136,-0.34837 16.96521,-288.31815 26.05152,-287.820246 9.08631,0.497904 18.54507,341.687076 28.28624,342.921316 9.74117,1.23425 19.76475,-280.20894 29.98069,-278.34828 10.21594,1.86066 20.62425,313.97928 31.13488,316.35642 10.51063,2.37714 21.12358,-454.9194297 31.7488,-452.1357497 10.62523,2.78368 21.26273,524.6097197 31.82247,527.6899997 10.55973,3.08029 21.0417,-403.08411 31.35586,-399.81714 10.31416,3.26696 20.46051,341.8415 30.349,345.1852 9.88849,3.3437 19.51913,-289.7969 28.80186,-286.48639 9.28274,3.31051 18.21758,399.09613 26.71448,402.26352 8.49689,3.16738 16.55585,-329.006 24.08681,-326.09168 7.53097,2.91433 14.53395,221.30749 20.9189,223.85882 6.38495,2.55132 12.15187,-460.907008 17.21071,-458.828608 5.05884,2.07839 9.40961,360.192448 12.96226,361.687978 3.55265,1.49553 6.30719,123.54448 8.17355,124.34721 1.86637,0.80273 2.84458,-119.64075 2.84458,-119.64075"
           id="path3336"
           inkscape:connector-curvature="0"
           sodipodi:nodetypes="cccccccccccccccccsssssssssssssssc" /><g
           id="g4447"
           style="stroke:#ffffff;stroke-width:4.47467613"
           transform="matrix(2.0235696,0,0,1.8372671,67.436685,-1304.4699)" /></g></g><path
       style="fill:none;fill-rule:evenodd;stroke:#ff0000;stroke-width:25.26887703;stroke-linecap:round;stroke-linejoin:round;stroke-miterlimit:4;stroke-dasharray:none;stroke-opacity:1"
       d="m 10.055885,392.0184 c 0,0 158.720635,-86.32645 245.941505,-90.0136 84.90127,-3.58909 245.9415,67.1025 245.9415,67.1025"
       id="path3336-3"
       inkscape:connector-curvature="0"
       sodipodi:nodetypes="cac" /></g></svg>