<?xml version="1.0" encoding="UTF-8" standalone="no"?>
<!-- Generator: Adobe Illustrator 18.0.0, SVG Export Plug-In . SVG Version: 6.00 Build 0)  -->

<svg
   xmlns:dc="http://purl.org/dc/elements/1.1/"
   xmlns:cc="http://creativecommons.org/ns#"
   xmlns:rdf="http://www.w3.org/1999/02/22-rdf-syntax-ns#"
   xmlns:svg="http://www.w3.org/2000/svg"
   xmlns="http://www.w3.org/2000/svg"
   xmlns:sodipodi="http://sodipodi.sourceforge.net/DTD/sodipodi-0.dtd"
   xmlns:inkscape="http://www.inkscape.org/namespaces/inkscape"
   version="1.1"
   id="_x31_0"
   x="0px"
   y="0px"
   viewBox="0 0 512.00005 512"
   xml:space="preserve"
   inkscape:version="0.91 r13725"
   sodipodi:docname="save_spct1.svg"
   width="512.00006"
   height="511.99997"><metadata
     id="metadata13"><rdf:RDF><cc:Work
         rdf:about=""><dc:format>image/svg+xml</dc:format><dc:type
           rdf:resource="http://purl.org/dc/dcmitype/StillImage" /><dc:title /></cc:Work></rdf:RDF></metadata><defs
     id="defs11" /><sodipodi:namedview
     pagecolor="#ffffff"
     bordercolor="#666666"
     borderopacity="1"
     objecttolerance="10"
     gridtolerance="10"
     guidetolerance="10"
     inkscape:pageopacity="0"
     inkscape:pageshadow="2"
     inkscape:window-width="2010"
     inkscape:window-height="1227"
     id="namedview9"
     showgrid="false"
     inkscape:zoom="0.32593205"
     inkscape:cx="-843.39963"
     inkscape:cy="395.04099"
     inkscape:window-x="298"
     inkscape:window-y="93"
     inkscape:window-maximized="0"
     inkscape:current-layer="_x31_0"
     units="px" /><style
     type="text/css"
     id="style3">
	.st0{fill:#374149;}
</style><path
     style="opacity:1;fill:#f9f9f9;fill-opacity:1;fill-rule:evenodd;stroke:none;stroke-width:30;stroke-linecap:round;stroke-linejoin:round;stroke-miterlimit:4;stroke-dasharray:none;stroke-dashoffset:0;stroke-opacity:1"
     d="m 56,55.999985 273.76275,0 126.23731,124.067815 0,275.93222 -400.00006,0 z"
     id="rect4161"
     inkscape:connector-curvature="0"
     sodipodi:nodetypes="cccccc" /><path
     sodipodi:nodetypes="csssssc"
     inkscape:connector-curvature="0"
     id="path4233-8"
     d="m 101.81661,393.31402 c 0,0 44.75448,2.55965 56.41621,-3.19812 43.70805,-21.58009 39.25206,-97.75763 59.45703,-98.82202 7.93605,-0.41806 22.26706,54.04829 34.6402,54.04829 29.50121,0 29.5894,-89.86727 48.59967,-89.86727 23.04667,0 13.8937,93.58258 61.00811,125.68626 15.24838,10.39021 46.07583,8.95474 46.07583,8.95474"
     style="fill:none;fill-rule:evenodd;stroke:#221815;stroke-width:24.99999809;stroke-linecap:round;stroke-linejoin:miter;stroke-miterlimit:4;stroke-dasharray:none;stroke-opacity:1" /><g
     id="g5"
     transform="matrix(0.8,0,0,0.8,51.200031,51.2)"
     style="fill:#000000"><path
       inkscape:connector-curvature="0"
       class="st0"
       d="M 380.344,0 0,0 0,512 512,512 512,131.656 380.344,0 Z m -267.363,141.606 0,-106.45 c 0,-8.629 6.972,-15.652 15.605,-15.652 l 194.657,0 c 8.633,0 15.652,7.023 15.652,15.652 l 0,106.45 c 0,8.629 -7.019,15.652 -15.652,15.652 l -194.657,0 c -8.633,0 -15.605,-7.024 -15.605,-15.652 z m 330.753,104.64 0,190.171 c 0,14.825 -11.996,26.821 -26.82,26.821 l -321.828,0 c -14.824,0 -26.82,-11.996 -26.82,-26.821 l 0,-190.171 c 0,-14.825 11.996,-26.817 26.82,-26.817 l 321.829,0 c 14.823,0.001 26.819,11.993 26.819,26.817 z"
       id="path7"
       style="fill:#000000" /><polygon
       class="st0"
       points="236.574,34.23 236.492,34.23 236.492,142.531 309.637,142.531 309.637,34.23 237.019,34.23 236.574,34.23 "
       id="polygon9"
       style="fill:#000000" /></g></svg>