<?xml version="1.0" encoding="UTF-8" standalone="no"?>
<!-- Generator: Adobe Illustrator 18.0.0, SVG Export Plug-In . SVG Version: 6.00 Build 0)  -->

<svg
   xmlns:dc="http://purl.org/dc/elements/1.1/"
   xmlns:cc="http://creativecommons.org/ns#"
   xmlns:rdf="http://www.w3.org/1999/02/22-rdf-syntax-ns#"
   xmlns:svg="http://www.w3.org/2000/svg"
   xmlns="http://www.w3.org/2000/svg"
   xmlns:sodipodi="http://sodipodi.sourceforge.net/DTD/sodipodi-0.dtd"
   xmlns:inkscape="http://www.inkscape.org/namespaces/inkscape"
   version="1.1"
   id="_x31_0"
   x="0px"
   y="0px"
   viewBox="0 0 512 512"
   style="enable-background:new 0 0 512 512;"
   xml:space="preserve"
   inkscape:version="0.91 r13725"
   sodipodi:docname="set_spc_range1.svg"><metadata
     id="metadata13"><rdf:RDF><cc:Work
         rdf:about=""><dc:format>image/svg+xml</dc:format><dc:type
           rdf:resource="http://purl.org/dc/dcmitype/StillImage" /></cc:Work></rdf:RDF></metadata><defs
     id="defs11"><inkscape:path-effect
       is_visible="true"
       id="path-effect3344-9-7-1"
       effect="spiro" /></defs><sodipodi:namedview
     pagecolor="#ffffff"
     bordercolor="#666666"
     borderopacity="1"
     objecttolerance="10"
     gridtolerance="10"
     guidetolerance="10"
     inkscape:pageopacity="0"
     inkscape:pageshadow="2"
     inkscape:window-width="1173"
     inkscape:window-height="812"
     id="namedview9"
     showgrid="false"
     inkscape:zoom="0.65186406"
     inkscape:cx="-125.23099"
     inkscape:cy="256.2942"
     inkscape:window-x="705"
     inkscape:window-y="411"
     inkscape:window-maximized="0"
     inkscape:current-layer="g4156" /><style
     type="text/css"
     id="style3">
	.st0{fill:#374149;}
</style><g
     id="g5"
     style="fill:#808080" /><g
     id="g4156"><g
       id="g4166"
       transform="matrix(3.9483057,0,0,3.9483057,-604.62382,-2589.9757)"><g
         id="g4429"
         transform="matrix(0.46049291,0,0,0.41809705,450.83064,193.68066)"
         style="stroke:#ffffff;stroke-width:2.27902961" /><g
         id="g4209"
         transform="translate(-8.2202706e-5,-7.2096162)"><g
           transform="translate(-5.2320333,-2.1805225e-5)"
           id="text4399"
           style="font-style:normal;font-variant:normal;font-weight:normal;font-stretch:normal;font-size:40px;line-height:89.99999762%;font-family:sans-serif;-inkscape-font-specification:'sans-serif, Normal';text-align:start;letter-spacing:0px;word-spacing:0px;writing-mode:lr-tb;text-anchor:start;fill:#000000;fill-opacity:1;stroke:#000000;stroke-width:2.47237039;stroke-linecap:butt;stroke-linejoin:miter;stroke-miterlimit:4;stroke-dasharray:none;stroke-opacity:1"><g
             transform="translate(84.701029,146.08985)"
             id="g4154" /><g
             transform="translate(45.375309,38.719758)"
             id="g4158"><path
               d="m 185.94761,716.37845 3.45529,0 q -0.0406,-1.30081 0.2439,-2.56097 0.3252,-1.30082 1.01626,-2.31708 0.69106,-1.01626 1.74797,-1.62601 1.09756,-0.65041 2.60163,-0.65041 1.13821,0 2.15447,0.36585 1.01626,0.36586 1.74796,1.05691 0.77236,0.69106 1.21952,1.66667 0.44715,0.93496 0.44715,2.11382 0,1.50407 -0.4878,2.64228 -0.44716,1.13821 -1.38212,2.11382 -0.89431,0.97561 -2.27642,1.95122 -1.38211,0.93496 -3.21138,2.07317 -1.50407,0.89431 -2.88618,1.91057 -1.38212,1.01626 -2.47968,2.35772 -1.09756,1.34147 -1.82926,3.17073 -0.69106,1.78862 -0.89431,4.3496 l 18.82113,0 0,-3.04878 -14.79674,0 q 0.2439,-1.34147 1.01626,-2.35773 0.813,-1.05691 1.91057,-1.95122 1.13821,-0.89431 2.47967,-1.66666 1.34146,-0.81301 2.68293,-1.62602 1.34146,-0.85366 2.60162,-1.78862 1.26017,-0.93496 2.23578,-2.07317 0.97561,-1.17886 1.54471,-2.64227 0.60976,-1.46342 0.60976,-3.37399 0,-2.03252 -0.73171,-3.57723 -0.69106,-1.54472 -1.91057,-2.56098 -1.21951,-1.05691 -2.88618,-1.58537 -1.62601,-0.5691 -3.49593,-0.5691 -2.27643,0 -4.06504,0.77236 -1.78862,0.77235 -3.00813,2.15447 -1.17887,1.34146 -1.74797,3.21138 -0.56911,1.86992 -0.44716,4.06504 z"
               style="font-style:normal;font-variant:normal;font-weight:normal;font-stretch:normal;font-size:40px;line-height:89.99999762%;font-family:'.Helvetica Neue DeskInterface';-inkscape-font-specification:'.Helvetica Neue DeskInterface, Normal';text-align:start;writing-mode:lr-tb;text-anchor:start;fill:#000000;stroke:#000000;stroke-width:2.47237039;stroke-miterlimit:4;stroke-dasharray:none"
               id="path4157"
               inkscape:connector-curvature="0" /><path
               d="m 212.10298,720.80935 q 0,-1.05692 0,-2.31708 0.0406,-1.30081 0.20325,-2.56097 0.20325,-1.30082 0.52845,-2.52033 0.36586,-1.21951 1.01626,-2.11382 0.69106,-0.93496 1.70732,-1.50407 1.01626,-0.5691 2.47967,-0.5691 1.46342,0 2.47968,0.5691 1.01626,0.56911 1.66667,1.50407 0.69105,0.89431 1.01626,2.11382 0.36585,1.21951 0.52845,2.52033 0.20325,1.26016 0.20325,2.56097 0.0406,1.26016 0.0406,2.31708 0,1.62601 -0.12195,3.65853 -0.0813,1.99187 -0.6504,3.78049 -0.52846,1.74797 -1.74797,2.96748 -1.21951,1.21951 -3.41464,1.21951 -2.19512,0 -3.41463,-1.21951 -1.21951,-1.21951 -1.78862,-2.96748 -0.52845,-1.78862 -0.6504,-3.78049 -0.0813,-2.03252 -0.0813,-3.65853 z m -3.65854,0.0407 q 0,1.58536 0.0813,3.29268 0.0813,1.70732 0.4065,3.33333 0.32521,1.62602 0.93496,3.08943 0.60976,1.42277 1.66667,2.52033 1.05691,1.09756 2.64228,1.74797 1.62601,0.60975 3.86178,0.60975 2.27643,0 3.86179,-0.60975 1.58537,-0.65041 2.64228,-1.74797 1.05691,-1.09756 1.66667,-2.52033 0.60975,-1.46341 0.93496,-3.08943 0.3252,-1.62601 0.4065,-3.33333 0.0813,-1.70732 0.0813,-3.29268 0,-1.58537 -0.0813,-3.29269 -0.0813,-1.70731 -0.4065,-3.33333 -0.32521,-1.62602 -0.93496,-3.08943 -0.60976,-1.46342 -1.66667,-2.56098 -1.05691,-1.09756 -2.68293,-1.74796 -1.58536,-0.65041 -3.82114,-0.65041 -2.23577,0 -3.86178,0.65041 -1.58537,0.6504 -2.64228,1.74796 -1.05691,1.09756 -1.66667,2.56098 -0.60975,1.46341 -0.93496,3.08943 -0.3252,1.62602 -0.4065,3.33333 -0.0813,1.70732 -0.0813,3.29269 z"
               style="font-style:normal;font-variant:normal;font-weight:normal;font-stretch:normal;font-size:40px;line-height:89.99999762%;font-family:'.Helvetica Neue DeskInterface';-inkscape-font-specification:'.Helvetica Neue DeskInterface, Normal';text-align:start;writing-mode:lr-tb;text-anchor:start;fill:#000000;stroke:#000000;stroke-width:2.47237039;stroke-miterlimit:4;stroke-dasharray:none"
               id="path4159"
               inkscape:connector-curvature="0" /></g><g
             transform="translate(-14.292363,2.7197578)"
             id="g4162"><path
               d="m 198.63054,770.99634 0,-28.82114 -2.64228,0 q -0.28455,1.62601 -1.05691,2.68292 -0.77235,1.05692 -1.91056,1.66667 -1.09757,0.60976 -2.47968,0.85366 -1.38211,0.20325 -2.84553,0.20325 l 0,2.76423 7.47968,0 0,20.65041 3.45528,0 z"
               style="font-style:normal;font-variant:normal;font-weight:normal;font-stretch:normal;font-size:40px;line-height:89.99999762%;font-family:'.Helvetica Neue DeskInterface';-inkscape-font-specification:'.Helvetica Neue DeskInterface, Normal';text-align:start;writing-mode:lr-tb;text-anchor:start;fill:#000000;stroke:#000000;stroke-width:2.47237039;stroke-miterlimit:4;stroke-dasharray:none"
               id="path4163"
               inkscape:connector-curvature="0" /><path
               d="m 212.10298,756.80934 q 0,-1.05691 0,-2.31707 0.0406,-1.30081 0.20325,-2.56097 0.20325,-1.30082 0.52845,-2.52033 0.36586,-1.21951 1.01626,-2.11382 0.69106,-0.93496 1.70732,-1.50407 1.01626,-0.5691 2.47967,-0.5691 1.46342,0 2.47968,0.5691 1.01626,0.56911 1.66667,1.50407 0.69105,0.89431 1.01626,2.11382 0.36585,1.21951 0.52845,2.52033 0.20325,1.26016 0.20325,2.56097 0.0406,1.26016 0.0406,2.31707 0,1.62602 -0.12195,3.65854 -0.0813,1.99187 -0.6504,3.78049 -0.52846,1.74797 -1.74797,2.96748 -1.21951,1.21951 -3.41464,1.21951 -2.19512,0 -3.41463,-1.21951 -1.21951,-1.21951 -1.78862,-2.96748 -0.52845,-1.78862 -0.6504,-3.78049 -0.0813,-2.03252 -0.0813,-3.65854 z m -3.65854,0.0407 q 0,1.58537 0.0813,3.29269 0.0813,1.70731 0.4065,3.33333 0.32521,1.62602 0.93496,3.08943 0.60976,1.42277 1.66667,2.52033 1.05691,1.09756 2.64228,1.74796 1.62601,0.60976 3.86178,0.60976 2.27643,0 3.86179,-0.60976 1.58537,-0.6504 2.64228,-1.74796 1.05691,-1.09756 1.66667,-2.52033 0.60975,-1.46341 0.93496,-3.08943 0.3252,-1.62602 0.4065,-3.33333 0.0813,-1.70732 0.0813,-3.29269 0,-1.58536 -0.0813,-3.29268 -0.0813,-1.70732 -0.4065,-3.33333 -0.32521,-1.62602 -0.93496,-3.08943 -0.60976,-1.46342 -1.66667,-2.56098 -1.05691,-1.09756 -2.68293,-1.74797 -1.58536,-0.6504 -3.82114,-0.6504 -2.23577,0 -3.86178,0.6504 -1.58537,0.65041 -2.64228,1.74797 -1.05691,1.09756 -1.66667,2.56098 -0.60975,1.46341 -0.93496,3.08943 -0.3252,1.62601 -0.4065,3.33333 -0.0813,1.70732 -0.0813,3.29268 z"
               style="font-style:normal;font-variant:normal;font-weight:normal;font-stretch:normal;font-size:40px;line-height:89.99999762%;font-family:'.Helvetica Neue DeskInterface';-inkscape-font-specification:'.Helvetica Neue DeskInterface, Normal';text-align:start;writing-mode:lr-tb;text-anchor:start;fill:#000000;stroke:#000000;stroke-width:2.47237039;stroke-miterlimit:4;stroke-dasharray:none"
               id="path4165"
               inkscape:connector-curvature="0" /></g></g><g
           transform="matrix(0.46049291,0,0,0.41809706,457.19629,199.75923)"
           id="g4198"
           style="stroke:#ffffff;stroke-width:2.27902961"><text
             transform="scale(0.93828524,1.065774)"
             sodipodi:linespacing="125%"
             id="text4407"
             y="1170.0094"
             x="-663.73566"
             style="font-style:normal;font-weight:normal;font-size:121.59401703px;line-height:125%;font-family:sans-serif;letter-spacing:0px;word-spacing:0px;fill:#ff0000;fill-opacity:1;stroke:none;stroke-width:1px;stroke-linecap:butt;stroke-linejoin:miter;stroke-opacity:1"
             xml:space="preserve"><tspan
               style="fill:#ff0000"
               y="1170.0094"
               x="-663.73566"
               id="tspan4409"
               sodipodi:role="line">⬅</tspan></text>
<text
             transform="scale(-0.93828523,-1.065774)"
             sodipodi:linespacing="125%"
             id="text4407-1"
             y="-1077.5978"
             x="443.59097"
             style="font-style:normal;font-weight:normal;font-size:121.59401703px;line-height:125%;font-family:sans-serif;letter-spacing:0px;word-spacing:0px;fill:#ff0000;fill-opacity:1;stroke:none;stroke-width:1px;stroke-linecap:butt;stroke-linejoin:miter;stroke-opacity:1"
             xml:space="preserve"><tspan
               style="fill:#ff0000"
               y="-1077.5978"
               x="443.59097"
               id="tspan4409-5"
               sodipodi:role="line">⬅</tspan></text>
</g><g
           transform="matrix(0,1,-1,0,938.78229,554.16065)"
           id="g4191"><g
             id="g4167"><path
               inkscape:connector-curvature="0"
               inkscape:original-d="m 172.3063,668.93902 0,103.74066"
               inkscape:path-effect="#path-effect3344-9-7-1"
               id="path3342-3-4-7"
               d="m 172.3063,668.93902 0,103.74066"
               style="fill:#000000;fill-rule:evenodd;stroke:#000000;stroke-width:7.50710869;stroke-linecap:butt;stroke-linejoin:miter;stroke-miterlimit:4;stroke-dasharray:none;stroke-opacity:1" /></g><path
             d="m 170.41027,690.68098 0,3.25203 11.74796,0 0,-3.25203 -11.74796,0 z"
             style="font-style:normal;font-variant:normal;font-weight:normal;font-stretch:normal;font-size:40px;line-height:89.99999762%;font-family:'.Helvetica Neue DeskInterface';-inkscape-font-specification:'.Helvetica Neue DeskInterface, Normal';text-align:start;letter-spacing:0px;word-spacing:0px;writing-mode:lr-tb;text-anchor:start;fill:#000000;fill-opacity:1;stroke:#000000;stroke-width:2.47237039;stroke-linecap:butt;stroke-linejoin:miter;stroke-miterlimit:4;stroke-dasharray:none;stroke-opacity:1"
             id="path4149"
             inkscape:connector-curvature="0" /><path
             d="m 170.41027,749.01717 0,3.25203 11.74796,0 0,-3.25203 -11.74796,0 z"
             style="font-style:normal;font-variant:normal;font-weight:normal;font-stretch:normal;font-size:40px;line-height:89.99999762%;font-family:'.Helvetica Neue DeskInterface';-inkscape-font-specification:'.Helvetica Neue DeskInterface, Normal';text-align:start;letter-spacing:0px;word-spacing:0px;writing-mode:lr-tb;text-anchor:start;fill:#000000;fill-opacity:1;stroke:#000000;stroke-width:2.47237039;stroke-linecap:butt;stroke-linejoin:miter;stroke-miterlimit:4;stroke-dasharray:none;stroke-opacity:1"
             id="path4161"
             inkscape:connector-curvature="0" /></g></g></g></g></svg>