<?xml version="1.0" encoding="UTF-8" standalone="no"?>
<!-- Generator: Adobe Illustrator 18.0.0, SVG Export Plug-In . SVG Version: 6.00 Build 0)  -->

<svg
   xmlns:dc="http://purl.org/dc/elements/1.1/"
   xmlns:cc="http://creativecommons.org/ns#"
   xmlns:rdf="http://www.w3.org/1999/02/22-rdf-syntax-ns#"
   xmlns:svg="http://www.w3.org/2000/svg"
   xmlns="http://www.w3.org/2000/svg"
   xmlns:sodipodi="http://sodipodi.sourceforge.net/DTD/sodipodi-0.dtd"
   xmlns:inkscape="http://www.inkscape.org/namespaces/inkscape"
   version="1.1"
   id="_x31_0"
   x="0px"
   y="0px"
   viewBox="0 0 512.00005 512"
   xml:space="preserve"
   inkscape:version="0.91 r13725"
   sodipodi:docname="unmix3.svg"
   width="512.00006"
   height="511.99997"><metadata
     id="metadata13"><rdf:RDF><cc:Work
         rdf:about=""><dc:format>image/svg+xml</dc:format><dc:type
           rdf:resource="http://purl.org/dc/dcmitype/StillImage" /><dc:title /></cc:Work></rdf:RDF></metadata><defs
     id="defs11" /><sodipodi:namedview
     pagecolor="#ffffff"
     bordercolor="#666666"
     borderopacity="1"
     objecttolerance="10"
     gridtolerance="10"
     guidetolerance="10"
     inkscape:pageopacity="0"
     inkscape:pageshadow="2"
     inkscape:window-width="2010"
     inkscape:window-height="1227"
     id="namedview9"
     showgrid="false"
     inkscape:zoom="1.3037282"
     inkscape:cx="132.93369"
     inkscape:cy="318.60357"
     inkscape:window-x="298"
     inkscape:window-y="93"
     inkscape:window-maximized="0"
     inkscape:current-layer="_x31_0"
     units="px" /><style
     type="text/css"
     id="style3">
	.st0{fill:#374149;}
</style><path
     style="opacity:1;fill:#cccccc;fill-opacity:1;fill-rule:evenodd;stroke:none;stroke-width:20;stroke-linecap:round;stroke-linejoin:round;stroke-miterlimit:4;stroke-dasharray:none;stroke-dashoffset:0;stroke-opacity:1"
     d="m -1.9824182e-6,-1.55e-5 512.0000619824181,0 0,512.0000355 -512.0000619824181,0 z"
     id="rect4136-6"
     inkscape:connector-curvature="0" /><path
     style="fill:#808080;fill-rule:evenodd;stroke:none;stroke-width:1px;stroke-linecap:butt;stroke-linejoin:miter;stroke-opacity:1"
     d="M 464.8135,373.14179 392.67791,342.76891 363.38978,269.00621 337.89826,82.972319 317.83047,63.98927 l -18.44069,52.06779 -27.11864,130.71186 -17.35593,16.81355 -23.8644,-54.77965 -27.66102,-66.16948 -13.55932,34.16948 -34.16949,144.81355 -36.88135,42.30509 -69.694918,17.62711 119.118638,-2.1017 -38.98306,79.25424 274.11866,1.50848 -42.45765,-84.96611 z"
     id="path4317"
     inkscape:connector-curvature="0"
     sodipodi:nodetypes="ccccccccccccccccccc" /><g
     id="g4283"
     style="stroke-width:20.00000191;stroke-miterlimit:4;stroke-dasharray:none"
     transform="matrix(1.2976637,0,0,1.3017557,-48.0502,-130.06059)"
     clip-path="none"><path
       sodipodi:nodetypes="csssssc"
       inkscape:connector-curvature="0"
       id="path4233-8"
       d="m 73.69922,382.64392 c 0,0 46.94929,4.34092 59.1829,-5.42373 45.85155,-36.59788 41.17704,-165.78812 62.37288,-167.59322 8.32524,-0.709 23.35906,91.66102 36.33899,91.66102 30.94798,0 31.0405,-152.40678 50.98305,-152.40678 24.17689,0 14.57506,158.70761 64.00001,213.15254 15.99618,17.62087 48.33543,15.18644 48.33543,15.18644"
       style="fill:none;fill-rule:evenodd;stroke:#000000;stroke-width:19.23509026;stroke-linecap:round;stroke-linejoin:miter;stroke-miterlimit:4;stroke-dasharray:none;stroke-opacity:1" /><path
       sodipodi:nodetypes="csssc"
       inkscape:connector-curvature="0"
       id="path4235-4"
       d="m 136.13636,443.21162 c 0,0 16.11732,-0.0139 25.46625,-29.82654 12.33055,-39.32071 21.68612,-124.19982 32.56765,-124.20735 14.67776,-0.0102 20.64388,84.33371 32.83884,123.11468 10.29248,32.73092 23.56794,32.00396 23.56794,32.00396"
       style="fill:none;fill-rule:evenodd;stroke:#ff0000;stroke-width:19.23509026;stroke-linecap:round;stroke-linejoin:round;stroke-miterlimit:4;stroke-dasharray:none;stroke-opacity:1" /><path
       sodipodi:nodetypes="csssc"
       inkscape:connector-curvature="0"
       id="path4235-5-2"
       d="m 212.22068,442.86176 c 0,0 19.10697,-0.0185 30.19004,-39.5241 14.61778,-52.10514 25.70873,-164.58116 38.60869,-164.59113 17.40036,-0.0135 24.47316,111.75329 38.93017,163.14319 12.20165,43.3728 27.9396,42.40948 27.9396,42.40948"
       style="fill:none;fill-rule:evenodd;stroke:#ff0000;stroke-width:19.23509026;stroke-linecap:round;stroke-linejoin:miter;stroke-miterlimit:4;stroke-dasharray:none;stroke-opacity:1" /></g></svg>